<svg version="1.0" xmlns="http://www.w3.org/2000/svg"
 width="1920.000000pt" height="1080.000000pt" viewBox="0 0 1920.000000 1080.000000"
 preserveAspectRatio="xMidYMid meet">

<g transform="translate(0.000000,1080.000000) scale(0.100000,-0.100000)"
fill="#000000" stroke="none">
<path d="M0 5400 l0 -5400 9600 0 9600 0 0 5400 0 5400 -9600 0 -9600 0 0
-5400z m1625 4931 c269 -66 476 -183 850 -476 382 -300 515 -394 675 -475 99
-50 241 -98 343 -115 106 -19 291 -19 400 0 260 45 555 189 877 429 540 401
882 557 1255 573 209 9 402 -31 600 -126 178 -85 326 -185 609 -409 399 -317
564 -424 766 -496 141 -51 233 -68 374 -68 268 1 489 68 791 240 110 63 329
210 345 232 15 20 178 141 293 218 323 216 592 328 864 363 122 15 311 6 418
-20 275 -67 477 -184 935 -541 135 -105 295 -224 355 -265 281 -189 501 -265
771 -265 337 0 680 146 1122 477 271 203 449 314 644 400 412 181 761 190
1129 28 174 -76 344 -190 669 -446 390 -308 554 -410 775 -484 163 -55 374
-70 550 -39 274 48 612 216 939 468 104 80 139 92 171 60 10 -10 15 -29 13
-48 -2 -25 -18 -43 -88 -99 -248 -199 -590 -389 -830 -461 -162 -48 -245 -60
-405 -60 -126 0 -168 4 -262 26 -260 61 -480 185 -863 486 -469 369 -644 477
-883 546 -370 107 -776 11 -1227 -289 -79 -53 -180 -125 -225 -159 -101 -80
-323 -227 -440 -293 -177 -101 -363 -172 -544 -209 -223 -46 -434 -34 -654 37
-173 57 -413 201 -668 400 -431 338 -538 413 -703 498 -384 197 -768 186
-1209 -37 -144 -73 -357 -211 -452 -292 -176 -151 -424 -312 -645 -419 -252
-121 -403 -161 -635 -168 -165 -6 -260 7 -407 53 -237 75 -430 197 -903 570
-473 372 -733 485 -1090 471 -330 -13 -658 -155 -1064 -461 -544 -409 -924
-568 -1321 -553 -341 13 -612 139 -1065 493 -394 309 -512 392 -665 469 -395
198 -762 185 -1214 -42 -147 -74 -356 -211 -511 -335 -37 -30 -70 -48 -86 -48
-35 0 -61 31 -57 67 4 35 112 124 321 263 284 190 549 304 802 346 114 19 356
11 460 -15z m0 -2130 c269 -66 476 -183 850 -476 382 -300 515 -394 675 -475
99 -50 241 -98 343 -115 106 -19 291 -19 400 0 260 45 556 190 877 429 375
278 619 420 860 500 183 60 253 71 460 70 169 -1 194 -3 285 -28 260 -71 469
-192 845 -491 434 -344 603 -451 830 -523 132 -42 207 -54 340 -53 252 0 480
71 771 237 109 62 334 213 349 234 14 19 177 140 293 218 323 216 592 328 864
363 122 15 311 6 418 -20 275 -67 477 -184 935 -541 380 -296 549 -402 749
-470 176 -60 383 -76 566 -44 263 45 594 207 902 441 527 400 899 563 1287
563 355 0 630 -124 1111 -501 388 -304 507 -386 676 -469 384 -188 744 -174
1181 47 164 83 330 189 488 312 86 67 110 81 130 76 34 -8 51 -34 48 -70 -2
-24 -20 -43 -88 -98 -248 -199 -590 -389 -830 -461 -162 -48 -245 -60 -405
-60 -126 0 -168 4 -262 26 -260 61 -480 185 -863 486 -353 278 -532 401 -677
469 -378 175 -727 159 -1158 -52 -134 -66 -358 -209 -500 -319 -101 -80 -323
-227 -440 -293 -177 -101 -363 -172 -544 -209 -223 -46 -434 -34 -654 37 -173
57 -413 201 -668 400 -304 238 -408 316 -505 381 -477 317 -890 340 -1409 78
-142 -71 -355 -209 -450 -290 -176 -151 -424 -312 -645 -419 -252 -121 -403
-161 -635 -168 -165 -6 -260 7 -407 53 -237 75 -430 197 -903 570 -472 372
-733 485 -1090 471 -330 -13 -658 -155 -1064 -461 -544 -409 -924 -568 -1321
-553 -341 13 -612 139 -1065 493 -394 309 -512 392 -665 469 -395 198 -762
185 -1214 -42 -147 -74 -356 -211 -511 -335 -64 -51 -87 -57 -123 -32 -17 12
-22 24 -20 47 2 26 18 44 88 100 130 105 365 258 509 331 189 96 355 154 526
182 114 19 356 11 460 -15z m0 -2130 c269 -66 476 -183 850 -476 478 -376 622
-469 843 -544 178 -61 381 -78 567 -45 254 44 572 196 866 415 462 345 752
498 1069 566 66 14 127 18 270 17 169 -1 194 -3 285 -28 260 -71 469 -192 845
-491 344 -273 468 -359 635 -443 108 -54 252 -103 355 -122 91 -17 278 -14
385 5 294 52 628 224 966 498 106 86 344 246 474 320 192 108 440 194 632 218
122 15 311 6 418 -20 275 -67 477 -184 935 -541 380 -296 549 -402 749 -470
176 -60 383 -76 566 -44 263 45 594 207 902 441 527 400 899 563 1287 563 355
0 630 -124 1111 -501 388 -304 507 -386 676 -469 384 -188 744 -174 1181 47
164 83 330 189 488 312 86 67 110 81 130 76 34 -8 51 -34 48 -70 -2 -24 -20
-43 -88 -98 -171 -138 -434 -299 -620 -382 -227 -100 -394 -139 -605 -138
-375 1 -635 120 -1160 533 -431 338 -588 438 -815 513 -432 144 -914 8 -1466
-415 -398 -305 -719 -469 -1034 -529 -97 -18 -138 -21 -270 -16 -205 6 -335
38 -523 130 -167 82 -325 188 -602 403 -260 202 -379 289 -489 356 -440 268
-839 276 -1331 28 -143 -72 -367 -216 -454 -293 -160 -140 -420 -309 -641
-416 -252 -121 -403 -161 -635 -168 -165 -6 -260 7 -407 53 -237 75 -430 197
-903 570 -472 372 -733 485 -1090 471 -330 -13 -658 -155 -1064 -461 -544
-409 -924 -568 -1321 -553 -341 13 -612 139 -1065 493 -394 309 -512 392 -665
469 -395 198 -762 185 -1214 -42 -147 -74 -356 -211 -511 -335 -64 -51 -87
-57 -123 -32 -17 12 -22 24 -20 47 2 26 18 44 88 100 130 105 365 258 509 331
189 96 355 154 526 182 114 19 356 11 460 -15z m0 -2130 c269 -66 476 -183
850 -476 478 -376 622 -469 843 -544 178 -61 381 -78 567 -45 254 44 572 196
866 415 462 345 752 498 1069 566 66 14 127 18 270 17 169 -1 194 -3 285 -28
260 -71 469 -192 845 -491 344 -273 468 -359 635 -443 108 -54 252 -103 355
-122 151 -27 383 -8 555 46 232 73 553 254 760 429 229 194 515 369 756 466
184 73 312 101 489 106 245 8 421 -32 648 -149 174 -89 305 -182 707 -499 422
-332 686 -449 1015 -449 58 0 146 7 195 16 263 45 594 207 902 441 527 400
899 563 1287 563 355 0 630 -124 1111 -501 378 -296 502 -382 664 -464 504
-252 1006 -150 1649 333 113 84 141 102 162 97 32 -8 50 -31 50 -66 0 -32 -37
-65 -210 -189 -407 -292 -768 -431 -1115 -432 -361 -1 -629 122 -1150 532
-431 338 -588 438 -815 513 -432 144 -910 9 -1467 -415 -401 -306 -699 -460
-1009 -524 -116 -23 -145 -25 -289 -21 -137 4 -177 9 -278 35 -219 57 -465
196 -768 434 -79 62 -189 147 -244 191 -313 245 -573 382 -803 422 -110 19
-283 19 -397 -1 -129 -22 -302 -82 -451 -157 -146 -73 -369 -217 -459 -296
-164 -144 -421 -312 -645 -420 -252 -121 -403 -161 -635 -168 -165 -6 -260 7
-407 53 -237 75 -430 197 -903 570 -472 372 -733 485 -1090 471 -334 -13 -650
-151 -1080 -472 -396 -295 -723 -462 -1020 -521 -134 -27 -390 -25 -506 4
-263 65 -490 191 -844 468 -291 228 -371 288 -475 357 -294 194 -553 271 -831
246 -315 -27 -631 -172 -1043 -478 -60 -45 -116 -81 -125 -81 -31 0 -61 30
-61 60 0 35 7 42 131 136 353 267 689 429 994 480 114 19 356 11 460 -15z
m-34 -2121 c119 -24 211 -57 344 -120 169 -81 309 -180 735 -515 421 -332 699
-455 1025 -455 311 0 680 151 1056 431 462 345 752 498 1069 566 66 14 127 18
270 17 169 -1 194 -3 285 -28 262 -71 466 -190 845 -491 492 -390 680 -499
965 -560 152 -32 404 -14 580 41 232 73 553 254 760 429 229 194 515 369 756
466 184 73 312 101 489 106 245 8 421 -32 648 -149 171 -88 333 -202 722 -509
399 -314 685 -439 1005 -439 319 0 700 159 1092 457 527 400 899 563 1287 563
355 0 630 -124 1111 -501 378 -296 502 -382 664 -464 504 -252 1006 -150 1649
333 113 85 141 102 162 96 38 -9 50 -23 50 -60 0 -31 -8 -41 -82 -99 -246
-195 -544 -365 -785 -449 -242 -83 -495 -102 -709 -53 -275 63 -484 181 -899
507 -431 338 -588 438 -815 513 -432 144 -910 9 -1467 -415 -401 -306 -699
-460 -1009 -524 -116 -23 -145 -25 -289 -21 -137 4 -177 9 -278 35 -218 57
-469 198 -767 432 -80 63 -190 149 -245 193 -313 245 -573 382 -803 422 -110
19 -283 19 -397 -1 -129 -22 -302 -82 -451 -157 -146 -73 -369 -217 -459 -296
-149 -131 -402 -299 -604 -401 -270 -136 -474 -190 -717 -190 -252 0 -479 72
-740 236 -138 86 -212 141 -463 339 -366 290 -540 399 -752 469 -135 45 -217
58 -364 58 -207 -1 -382 -46 -622 -162 -152 -73 -334 -188 -503 -316 -277
-211 -584 -388 -803 -463 -334 -116 -662 -103 -975 37 -193 87 -320 172 -722
487 -243 189 -421 311 -545 371 -199 96 -400 141 -579 130 -360 -22 -684 -172
-1160 -536 -44 -34 -62 -37 -94 -14 -29 20 -29 66 1 95 37 36 236 182 345 254
234 153 510 269 736 310 115 21 331 18 447 -5z"/>
</g>
</svg>
